<svg width="497" height="128" viewBox="0 0 497 128" fill="none" xmlns="http://www.w3.org/2000/svg">
<path d="M467.696 99.3754C465.22 99.3754 462.653 99.1004 459.993 98.5502C457.334 98 454.721 97.2665 452.154 96.3495C449.586 95.3409 447.202 94.1489 445.001 92.7734C442.801 91.398 440.875 89.9309 439.225 88.3721L445.827 78.8817C449.036 81.6326 452.75 83.7874 456.967 85.3462C461.185 86.905 465.449 87.6844 469.759 87.6844C473.885 87.6844 477.232 86.9967 479.799 85.6213C482.367 84.1542 483.651 82.2286 483.651 79.8445C483.651 77.9189 482.596 76.2226 480.487 74.7555C478.47 73.2884 475.902 71.913 472.785 70.6292C469.667 69.2538 466.274 67.8326 462.607 66.3655C458.939 64.8066 455.546 63.1103 452.429 61.2764C449.311 59.3508 446.698 57.1043 444.589 54.5369C442.571 51.9694 441.563 48.8977 441.563 45.3216C441.563 42.5708 442.205 40.0033 443.488 37.6193C444.772 35.2352 446.56 33.1721 448.853 31.4299C451.145 29.6877 453.85 28.3581 456.967 27.4412C460.085 26.4325 463.478 25.9282 467.146 25.9282C472.005 25.9282 476.59 26.6618 480.9 28.1289C485.301 29.596 489.702 31.9342 494.104 35.1435L487.502 44.7714C484.843 42.5708 481.587 40.8286 477.736 39.5448C473.977 38.2611 470.263 37.6193 466.595 37.6193C462.744 37.6193 459.672 38.3528 457.38 39.8199C455.088 41.1953 453.942 42.9834 453.942 45.1841C453.942 47.0179 454.95 48.6226 456.967 49.998C459.076 51.3734 461.69 52.703 464.807 53.9867C467.925 55.2704 471.318 56.6458 474.985 58.113C478.653 59.4884 482.046 61.1389 485.164 63.0645C488.281 64.8983 490.849 67.1449 492.866 69.804C494.975 72.4631 496.029 75.6724 496.029 79.4319C496.029 82.2744 495.296 84.9336 493.829 87.4093C492.453 89.8851 490.528 91.994 488.052 93.7362C485.576 95.4784 482.596 96.8538 479.112 97.8625C475.627 98.8711 471.822 99.3754 467.696 99.3754Z" fill="white"/>
<path d="M401.324 87.6842C408.201 87.6842 413.473 85.3918 417.141 80.8071C420.809 76.2224 422.643 69.7121 422.643 61.2762V29.229H434.747V64.4396C434.747 69.7579 433.921 74.5719 432.271 78.8815C430.712 83.1912 428.466 86.8589 425.531 89.8848C422.689 92.9108 419.204 95.249 415.078 96.8995C410.952 98.55 406.367 99.3752 401.324 99.3752C396.281 99.3752 391.696 98.55 387.57 96.8995C383.444 95.249 379.913 92.9108 376.979 89.8848C374.137 86.8589 371.89 83.1912 370.24 78.8815C368.681 74.5719 367.901 69.7579 367.901 64.4396V29.229H380.005V61.2762C380.005 69.5287 381.885 75.9931 385.644 80.6696C389.495 85.346 394.722 87.6842 401.324 87.6842Z" fill="white"/>
<path d="M332.092 73.93L315.587 97.9998H301.146L325.078 63.7519L301.146 29.229H315.725L332.505 53.4363L349.148 29.229H363.589L339.657 63.6144L363.589 97.9998H348.872L332.092 73.93Z" fill="white"/>
<path d="M247.459 69.3911C248.192 71.9585 249.293 74.3426 250.76 76.5432C252.319 78.7439 254.153 80.6236 256.262 82.1824C258.371 83.7412 260.755 84.9791 263.414 85.8961C266.073 86.813 268.87 87.2715 271.804 87.2715C280.148 87.2715 287.483 84.3373 293.81 78.4688L302.476 87.409C300.183 89.6097 297.891 91.4894 295.598 93.0482C293.306 94.5153 290.922 95.7532 288.446 96.7619C286.062 97.6788 283.495 98.3207 280.744 98.6874C277.993 99.1459 275.013 99.3752 271.804 99.3752C266.852 99.3752 262.084 98.504 257.499 96.7619C253.006 94.928 249.018 92.4064 245.533 89.1971C242.141 85.9878 239.39 82.2283 237.281 77.9187C235.264 73.5173 234.255 68.7492 234.255 63.6143C234.255 58.4795 235.126 53.7572 236.868 49.4475C238.702 45.0462 241.132 41.2867 244.158 38.1691C247.275 34.9598 250.943 32.4382 255.161 30.6044C259.379 28.7705 263.964 27.8535 268.915 27.8535C274.6 27.8535 279.644 28.908 284.045 31.017C288.538 33.1259 292.16 36.0602 294.911 39.8196C297.662 43.4874 299.495 47.8887 300.412 53.0236C301.329 58.0668 301.1 63.5226 299.725 69.3911H247.459ZM270.428 39.9572C264.652 39.9572 259.654 41.6077 255.436 44.9087C251.31 48.2097 248.605 52.4735 247.321 57.7H288.171C288.446 52.4735 286.933 48.2097 283.632 44.9087C280.331 41.6077 275.93 39.9572 270.428 39.9572Z" fill="white"/>
<path d="M195.415 37.069C188.813 37.069 183.586 39.4072 179.735 44.0836C175.976 48.76 174.096 55.2244 174.096 63.4769V97.9999H161.992V60.3135C161.992 54.9952 162.772 50.1813 164.33 45.8716C165.981 41.562 168.227 37.8942 171.07 34.8683C174.004 31.8424 177.534 29.5042 181.661 27.8537C185.787 26.2032 190.372 25.3779 195.415 25.3779C200.458 25.3779 205.043 26.2032 209.169 27.8537C213.295 29.5042 216.78 31.8424 219.622 34.8683C222.556 37.8942 224.803 41.562 226.362 45.8716C228.012 50.1813 228.837 54.9952 228.837 60.3135V97.9999H216.734V63.4769C216.734 55.0411 214.9 48.5308 211.232 43.946C207.564 39.3613 202.292 37.069 195.415 37.069Z" fill="white"/>
<g filter="url(#filter0_d_439_341)">
<path d="M120.265 35.4067C117.715 30.6338 114.59 26.1192 111.082 22.1969L110.184 21.214C103.471 13.9066 95.2637 8.4137 86.2981 4.8911L137.465 4.8879L120.265 35.4067Z" stroke="url(#paint0_linear_439_341)" stroke-width="4.54747" shape-rendering="crispEdges"/>
</g>
<g filter="url(#filter1_d_439_341)">
<path d="M4.31557 4.8826L38.6263 4.88194C30.4761 18.6635 27.6865 35.0149 30.1206 50.6705L4.31557 4.8826Z" stroke="url(#paint1_linear_439_341)" stroke-width="4.54747" shape-rendering="crispEdges"/>
</g>
<g filter="url(#filter2_d_439_341)">
<path d="M70.8653 123.056L53.7067 92.5503C69.2829 93.0078 84.4523 87.5109 96.4194 77.7157L70.8653 123.056Z" stroke="url(#paint2_linear_439_341)" stroke-width="4.54747" shape-rendering="crispEdges"/>
</g>
<defs>
<filter id="filter0_d_439_341" x="51.641" y="2.59375" width="89.7262" height="49.777" filterUnits="userSpaceOnUse" color-interpolation-filters="sRGB">
<feFlood flood-opacity="0" result="BackgroundImageFix"/>
<feColorMatrix in="SourceAlpha" type="matrix" values="0 0 0 0 0 0 0 0 0 0 0 0 0 0 0 0 0 0 127 0" result="hardAlpha"/>
<feOffset dx="-6.0633" dy="6.0633"/>
<feGaussianBlur stdDeviation="3.03165"/>
<feComposite in2="hardAlpha" operator="out"/>
<feColorMatrix type="matrix" values="0 0 0 0 0 0 0 0 0 0 0 0 0 0 0 0 0 0 0.25 0"/>
<feBlend mode="normal" in2="BackgroundImageFix" result="effect1_dropShadow_439_341"/>
<feBlend mode="normal" in="SourceGraphic" in2="effect1_dropShadow_439_341" result="shape"/>
</filter>
<filter id="filter1_d_439_341" x="0.435547" y="2.5752" width="72.5662" height="83.1017" filterUnits="userSpaceOnUse" color-interpolation-filters="sRGB">
<feFlood flood-opacity="0" result="BackgroundImageFix"/>
<feColorMatrix in="SourceAlpha" type="matrix" values="0 0 0 0 0 0 0 0 0 0 0 0 0 0 0 0 0 0 127 0" result="hardAlpha"/>
<feOffset dx="7.57912" dy="6.0633"/>
<feGaussianBlur stdDeviation="3.03165"/>
<feComposite in2="hardAlpha" operator="out"/>
<feColorMatrix type="matrix" values="0 0 0 0 0 0 0 0 0 0 0 0 0 0 0 0 0 0 0.25 0"/>
<feBlend mode="normal" in2="BackgroundImageFix" result="effect1_dropShadow_439_341"/>
<feBlend mode="normal" in="SourceGraphic" in2="effect1_dropShadow_439_341" result="shape"/>
</filter>
<filter id="filter2_d_439_341" x="42.1074" y="46.7479" width="72.0875" height="80.9205" filterUnits="userSpaceOnUse" color-interpolation-filters="sRGB">
<feFlood flood-opacity="0" result="BackgroundImageFix"/>
<feColorMatrix in="SourceAlpha" type="matrix" values="0 0 0 0 0 0 0 0 0 0 0 0 0 0 0 0 0 0 127 0" result="hardAlpha"/>
<feOffset dx="-1.51582" dy="-6.0633"/>
<feGaussianBlur stdDeviation="3.03165"/>
<feComposite in2="hardAlpha" operator="out"/>
<feColorMatrix type="matrix" values="0 0 0 0 0 0 0 0 0 0 0 0 0 0 0 0 0 0 0.25 0"/>
<feBlend mode="normal" in2="BackgroundImageFix" result="effect1_dropShadow_439_341"/>
<feBlend mode="normal" in="SourceGraphic" in2="effect1_dropShadow_439_341" result="shape"/>
</filter>
<linearGradient id="paint0_linear_439_341" x1="130.757" y1="21.4189" x2="71.8664" y2="-11.7723" gradientUnits="userSpaceOnUse">
<stop stop-color="#F92E5F"/>
<stop offset="0.915909" stop-color="#FDD452"/>
</linearGradient>
<linearGradient id="paint1_linear_439_341" x1="57.7927" y1="42.7405" x2="-2.9111" y2="8.52762" gradientUnits="userSpaceOnUse">
<stop stop-color="#F92E5F"/>
<stop offset="0.915909" stop-color="#FDD452"/>
</linearGradient>
<linearGradient id="paint2_linear_439_341" x1="90.2612" y1="93.2715" x2="58.069" y2="75.1278" gradientUnits="userSpaceOnUse">
<stop stop-color="#F92E5F"/>
<stop offset="0.915909" stop-color="#FDD452"/>
</linearGradient>
</defs>
</svg>
